<?xml version="1.0" encoding="UTF-8"?>
<svg xmlns="http://www.w3.org/2000/svg" width="128" height="128" viewBox="0 0 128 128">
  <path fill="#3EBBC4" d="M51.3,78.5l-2.8,-2.8c-4.2,4.2 -6.4,9.7 -6.4,15.6s2.3,11.4 6.4,15.6l2.8,-2.8c-3.4,-3.4 -5.3,-7.9 -5.3,-12.7C46,86.4 47.9,81.9 51.3,78.5z" />
  <path fill="#3EBBC4" d="M76.7,78.5c7,7 7,18.4 0,25.5l2.8,2.8c8.6,-8.6 8.6,-22.5 0,-31.1L76.7,78.5z" />
  <path fill="#3EBBC4" d="M74.3,81c-2.7,-2.7 -6.4,-4.2 -10.3,-4.2c-3.9,0 -7.5,1.5 -10.3,4.2c-5.7,5.7 -5.7,14.9 0,20.5c2.7,2.7 6.4,4.2 10.3,4.2s7.5,-1.5 10.3,-4.2c2.7,-2.7 4.2,-6.4 4.2,-10.3C78.5,87.4 77,83.7 74.3,81zM71.4,98.7c-2,2 -4.6,3.1 -7.4,3.1s-5.4,-1.1 -7.4,-3.1c-4.1,-4.1 -4.1,-10.8 0,-14.8c2,-2 4.6,-3.1 7.4,-3.1s5.4,1.1 7.4,3.1s3.1,4.6 3.1,7.4S73.4,96.7 71.4,98.7z" />
  <path fill="#3EBBC4" d="M115.9,93.3l-8.5,-4.9c1.3,-4.2 2,-8.6 2,-13.2c0,-4 -0.5,-7.9 -1.5,-11.7l8,-4.6c1.6,-0.9 2.8,-2.4 3.3,-4.3c0.5,-1.8 0.2,-3.7 -0.7,-5.3l-4.1,-7.1c-1.9,-3.3 -6.2,-4.5 -9.6,-2.6L97.4,44L77.6,17.6c-3.2,-4.3 -8.2,-6.8 -13.6,-6.8c-5.4,0 -10.4,2.5 -13.6,6.8L30.6,44l-7.4,-4.3c-3.3,-1.9 -7.6,-0.8 -9.6,2.6l-4.1,7.1c-1.9,3.3 -0.8,7.6 2.6,9.6l7.9,4.6c-1.2,4.7 -1.7,9.6 -1.4,14.6c0.2,3.5 0.9,7 1.9,10.2l-8.5,4.9c-1.6,0.9 -2.8,2.4 -3.3,4.3c-0.5,1.8 -0.2,3.7 0.7,5.3l4.1,7.1c1.3,2.2 3.7,3.5 6.1,3.5c1.2,0 2.4,-0.3 3.5,-0.9l8.9,-5.2c8,7.9 18.8,12.9 30.6,13.2c0.4,0 0.8,0 1.2,0c12.4,0 23.7,-5 31.9,-13.2l8.9,5.2c1.1,0.6 2.3,0.9 3.5,0.9c2.4,0 4.8,-1.3 6.1,-3.5l4.1,-7.1c0.9,-1.6 1.2,-3.5 0.7,-5.3C118.7,95.8 117.5,94.2 115.9,93.3zM106.8,43.2c1.4,-0.8 3.3,-0.3 4.1,1.1l4.1,7.1c0.4,0.7 0.5,1.5 0.3,2.3c-0.2,0.8 -0.7,1.4 -1.4,1.8l-7.2,4.2c-1.4,-3.7 -3.2,-7.3 -5.6,-10.6l-0.1,-0.1c0,0 0,-0.1 -0.1,-0.1l-1.2,-1.6L106.8,43.2zM14.1,55.4c-1.4,-0.8 -1.9,-2.7 -1.1,-4.1l4.1,-7.1c0.8,-1.4 2.7,-1.9 4.1,-1.1l7,4.1L27,48.8l-0.3,0.3c-2.3,3.3 -4.1,6.8 -5.5,10.5L14.1,55.4zM21.2,109c-1.4,0.8 -3.3,0.3 -4.1,-1.1l-4.1,-7.1c-0.8,-1.4 -0.3,-3.3 1.1,-4.1l7.8,-4.6c1.8,4.4 4.3,8.5 7.4,12.1L21.2,109zM62.8,116.5C41.7,115.9 24.1,99 22.7,77.9c-0.6,-9.5 1.9,-18.6 7.3,-26.4c0.1,-0.1 0.2,-0.2 0.3,-0.4L53.6,20c2.5,-3.3 6.3,-5.2 10.4,-5.2c4.1,0 7.9,1.9 10.4,5.2l23.2,30.9c0,0 0.1,0.1 0.1,0.1c0.1,0.1 0.1,0.2 0.2,0.3c5,7.1 7.6,15.3 7.6,23.8C105.3,98.3 86.1,117.1 62.8,116.5zM115,100.9l-4.1,7.1c-0.8,1.4 -2.7,1.9 -4.1,1.1l-8.1,-4.7c3,-3.6 5.5,-7.7 7.4,-12.1l7.8,4.6c0.7,0.4 1.2,1 1.4,1.8C115.5,99.4 115.4,100.2 115,100.9z" />
  <path fill="#3EBBC4" d="M82.9,55.5l2.1,-3.4c-4.4,-2.8 -7.1,-7.5 -7.1,-12.7v-0.6h-4v0.6C74,46 77.3,52 82.9,55.5z" />
</svg>